<svg width="154" height="42" viewBox="0 0 154 42" fill="none" xmlns="http://www.w3.org/2000/svg">
<g clip-path="url(#clip0_41_1277)">
<path d="M21.3872 38.7891C19.0793 39.1944 16.7309 39.3159 14.3016 39.6395L6.89174 17.9371L6.89174 40.5709C4.5839 40.8138 2.47847 41.1377 0.291993 41.4616L0.291992 0L6.44662 -5.10549e-08L14.8683 23.525L14.8683 -1.20916e-07L21.3872 -1.74992e-07L21.3872 38.7891ZM34.1415 15.1837C36.6521 15.1837 40.4986 15.0622 42.8064 15.0622L42.8064 21.5404C39.9315 21.5404 36.571 21.5404 34.1415 21.6619L34.1415 31.2987C37.9477 31.0558 41.7538 30.7316 45.6001 30.6101L45.6001 36.8452L27.663 38.2627L27.663 -2.27052e-07L45.6001 -3.75847e-07L45.6001 6.47839L34.1415 6.47839L34.1415 15.1837ZM69.6916 6.47854L62.9703 6.47854L62.9703 36.279C60.7838 36.279 58.5973 36.279 56.4922 36.3598L56.4922 6.47854L49.771 6.47854L49.771 -4.10446e-07L69.6919 -5.75697e-07L69.6916 6.47854ZM80.2188 14.7384L89.0863 14.7384L89.0863 21.2167L80.2188 21.2167L80.2188 35.9147L73.8615 35.9147L73.8615 -6.10286e-07L91.961 -7.60428e-07L91.961 6.47839L80.2188 6.47839L80.2188 14.7384ZM102.488 30.2459C106.173 30.3267 109.898 30.6106 113.502 30.8127L113.502 37.2102C107.712 36.8455 101.922 36.4816 96.0101 36.3598L96.0101 -7.94016e-07L102.488 -8.47756e-07L102.488 30.2459ZM118.968 37.6556C121.033 37.7772 123.219 37.8987 125.325 38.1413L125.325 -1.03719e-06L118.968 -9.84458e-07L118.968 37.6556ZM153.708 -1.27264e-06L145.489 19.7186L153.708 41.4616C151.279 41.1377 148.849 40.6923 146.42 40.2873L141.764 28.3026L137.027 39.3159C134.678 38.9106 132.41 38.7891 130.062 38.4652L138.403 19.4755L130.872 -1.08321e-06L137.836 -1.14098e-06L142.087 10.8918L146.622 -1.21386e-06L153.708 -1.27264e-06Z" fill="#FF000A"/>
</g>
<defs>
<clipPath id="clip0_41_1277">
<rect width="153.416" height="41.4616" fill="white" transform="translate(0.291992)"/>
</clipPath>
</defs>
</svg>
