<svg width="24" height="24" viewBox="0 0 24 24" fill="none" xmlns="http://www.w3.org/2000/svg">
<g clip-path="url(#clip0_154_5321)">
<path d="M10.8 10.8V6H13.2V10.8H18V13.2H13.2V18H10.8V13.2H6V10.8H10.8ZM12 24C5.37258 24 0 18.6274 0 12C0 5.37258 5.37258 0 12 0C18.6274 0 24 5.37258 24 12C24 18.6274 18.6274 24 12 24ZM12 21.6C17.302 21.6 21.6 17.302 21.6 12C21.6 6.69806 17.302 2.4 12 2.4C6.69806 2.4 2.4 6.69806 2.4 12C2.4 17.302 6.69806 21.6 12 21.6Z" fill="#EEEFF0"/>
</g>
<defs>
<clipPath id="clip0_154_5321">
<rect width="24" height="24" fill="white"/>
</clipPath>
</defs>
</svg>
