<svg width="24" height="24" viewBox="0 0 24 24" fill="none" xmlns="http://www.w3.org/2000/svg">
<path d="M6.00008 12.999C6.00008 16.309 8.69008 18.999 12.0001 18.999C15.3101 18.999 18.0001 16.309 18.0001 12.999C18.0001 9.68902 15.3101 6.99902 12.0001 6.99902V9.33333L7.00008 5.99902L12.0001 2.66666V4.99902C16.4201 4.99902 20.0001 8.57902 20.0001 12.999C20.0001 17.419 16.4201 20.999 12.0001 20.999C7.58008 20.999 4.00008 17.419 4.00008 12.999H6.00008Z" fill="#EEEFF0"/>
<path d="M9.74912 15.2291V11.7747L8.97412 12.1071L8.66669 11.3837L9.95408 10.771H10.5882V15.2291H9.74912Z" fill="#EEEFF0"/>
<path d="M13.2451 15.3334C12.9633 15.3334 12.7092 15.2747 12.4829 15.1574C12.2566 15.0358 12.0623 14.8706 11.9001 14.6621C11.7421 14.4535 11.6204 14.208 11.535 13.9256C11.4496 13.6388 11.4069 13.3303 11.4069 13.0001C11.4069 12.6698 11.4496 12.3635 11.535 12.0811C11.6204 11.7943 11.7421 11.5466 11.9001 11.3381C12.0623 11.1295 12.2566 10.9665 12.4829 10.8492C12.7092 10.7276 12.9633 10.6667 13.2451 10.6667C13.5269 10.6667 13.781 10.7276 14.0073 10.8492C14.2336 10.9665 14.4258 11.1295 14.5838 11.3381C14.746 11.5466 14.8699 11.7943 14.9553 12.0811C15.0407 12.3635 15.0834 12.6698 15.0834 13.0001C15.0834 13.3303 15.0407 13.6388 14.9553 13.9256C14.8699 14.208 14.746 14.4535 14.5838 14.6621C14.4258 14.8706 14.2336 15.0358 14.0073 15.1574C13.781 15.2747 13.5269 15.3334 13.2451 15.3334ZM13.2451 14.5252C13.3988 14.5252 13.5376 14.4883 13.6615 14.4144C13.7853 14.3362 13.8899 14.2297 13.9753 14.095C14.065 13.956 14.1312 13.7931 14.1739 13.6062C14.2208 13.4194 14.2443 13.2173 14.2443 13.0001C14.2443 12.7785 14.2208 12.5764 14.1739 12.3939C14.1312 12.2071 14.065 12.0463 13.9753 11.9116C13.8899 11.7726 13.7853 11.6661 13.6615 11.5922C13.5376 11.514 13.3988 11.4749 13.2451 11.4749C13.0871 11.4749 12.9462 11.514 12.8224 11.5922C12.6986 11.6661 12.594 11.7726 12.5086 11.9116C12.4232 12.0463 12.357 12.2071 12.31 12.3939C12.2673 12.5764 12.246 12.7785 12.246 13.0001C12.246 13.2173 12.2673 13.4194 12.31 13.6062C12.357 13.7931 12.4232 13.956 12.5086 14.095C12.594 14.2297 12.6986 14.3362 12.8224 14.4144C12.9462 14.4883 13.0871 14.5252 13.2451 14.5252Z" fill="#EEEFF0"/>
</svg>
