<svg width="24" height="24" viewBox="0 0 24 24" fill="none" xmlns="http://www.w3.org/2000/svg">
<g clip-path="url(#clip0_163_4118)">
<circle cx="12" cy="12" r="10.75" stroke="#272B2C" stroke-width="2.5"/>
<mask id="path-2-inside-1_163_4118" fill="white">
<path d="M21.7527 18.9918C23.0379 17.1991 23.8041 15.0868 23.9672 12.887C24.1302 10.6872 23.6838 8.48502 22.6769 6.52241C21.67 4.5598 20.1416 2.91269 18.2597 1.76204C16.3778 0.611382 14.2151 0.00171139 12.0093 3.59651e-06L12.0073 2.52415C13.7492 2.5255 15.4569 3.00693 16.943 3.91554C18.4291 4.82416 19.636 6.12481 20.4311 7.6746C21.2261 9.22438 21.5787 10.9633 21.4499 12.7004C21.3212 14.4375 20.7161 16.1055 19.7013 17.5211L21.7527 18.9918Z"/>
</mask>
<path d="M21.7527 18.9918C23.0379 17.1991 23.8041 15.0868 23.9672 12.887C24.1302 10.6872 23.6838 8.48502 22.6769 6.52241C21.67 4.5598 20.1416 2.91269 18.2597 1.76204C16.3778 0.611382 14.2151 0.00171139 12.0093 3.59651e-06L12.0073 2.52415C13.7492 2.5255 15.4569 3.00693 16.943 3.91554C18.4291 4.82416 19.636 6.12481 20.4311 7.6746C21.2261 9.22438 21.5787 10.9633 21.4499 12.7004C21.3212 14.4375 20.7161 16.1055 19.7013 17.5211L21.7527 18.9918Z" stroke="#EEEFF0" stroke-width="3" mask="url(#path-2-inside-1_163_4118)"/>
<path d="M8.57143 8H15.4286C15.7442 8 16 8.25584 16 8.57143V15.4286C16 15.7442 15.7442 16 15.4286 16H8.57143C8.25584 16 8 15.7442 8 15.4286V8.57143C8 8.25584 8.25584 8 8.57143 8Z" fill="#EEEFF0"/>
</g>
<defs>
<clipPath id="clip0_163_4118">
<rect width="24" height="24" fill="white"/>
</clipPath>
</defs>
</svg>
