<svg width="24" height="24" viewBox="0 0 24 24" fill="none" xmlns="http://www.w3.org/2000/svg">
<path d="M17.9998 12.9991C17.9998 16.3091 15.3098 18.9991 11.9998 18.9991C8.68982 18.9991 5.99982 16.3091 5.99982 12.9991C5.99982 9.68907 8.68982 6.99907 11.9998 6.99907V9.33338L16.9998 5.99907L11.9998 2.66672V4.99907C7.57982 4.99907 3.99982 8.57907 3.99982 12.9991C3.99982 17.4191 7.57982 20.9991 11.9998 20.9991C16.4198 20.9991 19.9998 17.4191 19.9998 12.9991H17.9998Z" fill="#EEEFF0"/>
<path d="M9.74903 15.2291V11.7747L8.97403 12.1071L8.6666 11.3837L9.95399 10.771H10.5881V15.2291H9.74903Z" fill="#EEEFF0"/>
<path d="M13.245 15.3334C12.9632 15.3334 12.7092 15.2747 12.4828 15.1574C12.2565 15.0358 12.0623 14.8706 11.9 14.6621C11.742 14.4535 11.6203 14.208 11.5349 13.9256C11.4495 13.6388 11.4068 13.3303 11.4068 13.0001C11.4068 12.6698 11.4495 12.3635 11.5349 12.0811C11.6203 11.7943 11.742 11.5466 11.9 11.3381C12.0623 11.1295 12.2565 10.9665 12.4828 10.8492C12.7092 10.7276 12.9632 10.6667 13.245 10.6667C13.5269 10.6667 13.7809 10.7276 14.0072 10.8492C14.2335 10.9665 14.4257 11.1295 14.5837 11.3381C14.7459 11.5466 14.8698 11.7943 14.9552 12.0811C15.0406 12.3635 15.0833 12.6698 15.0833 13.0001C15.0833 13.3303 15.0406 13.6388 14.9552 13.9256C14.8698 14.208 14.7459 14.4535 14.5837 14.6621C14.4257 14.8706 14.2335 15.0358 14.0072 15.1574C13.7809 15.2747 13.5269 15.3334 13.245 15.3334ZM13.245 14.5252C13.3988 14.5252 13.5375 14.4883 13.6614 14.4144C13.7852 14.3362 13.8898 14.2297 13.9752 14.095C14.0649 13.956 14.1311 13.7931 14.1738 13.6062C14.2207 13.4194 14.2442 13.2173 14.2442 13.0001C14.2442 12.7785 14.2207 12.5764 14.1738 12.3939C14.1311 12.2071 14.0649 12.0463 13.9752 11.9116C13.8898 11.7726 13.7852 11.6661 13.6614 11.5922C13.5375 11.514 13.3988 11.4749 13.245 11.4749C13.0871 11.4749 12.9461 11.514 12.8223 11.5922C12.6985 11.6661 12.5939 11.7726 12.5085 11.9116C12.4231 12.0463 12.3569 12.2071 12.3099 12.3939C12.2672 12.5764 12.2459 12.7785 12.2459 13.0001C12.2459 13.2173 12.2672 13.4194 12.3099 13.6062C12.3569 13.7931 12.4231 13.956 12.5085 14.095C12.5939 14.2297 12.6985 14.3362 12.8223 14.4144C12.9461 14.4883 13.0871 14.5252 13.245 14.5252Z" fill="#EEEFF0"/>
</svg>
