<svg width="24" height="24" viewBox="0 0 24 24" fill="none" xmlns="http://www.w3.org/2000/svg">
<g clip-path="url(#clip0_131_2245)">
<path d="M12.2222 2C11 2 10 3 10 4.22222C10 5.44444 11 6.44444 12.2222 6.44444C13.4444 6.44444 14.4444 5.44444 14.4444 4.22222C14.4444 3 13.4444 2 12.2222 2ZM12.2222 17.5556C11 17.5556 10 18.5556 10 19.7778C10 21 11 22 12.2222 22C13.4444 22 14.4444 21 14.4444 19.7778C14.4444 18.5556 13.4444 17.5556 12.2222 17.5556ZM12.2222 9.77778C11 9.77778 10 10.7778 10 12C10 13.2222 11 14.2222 12.2222 14.2222C13.4444 14.2222 14.4444 13.2222 14.4444 12C14.4444 10.7778 13.4444 9.77778 12.2222 9.77778Z" fill="#EEEFF0"/>
</g>
<defs>
<clipPath id="clip0_131_2245">
<rect width="24" height="24" fill="white"/>
</clipPath>
</defs>
</svg>
