<svg width="24" height="24" viewBox="0 0 24 24" fill="none" xmlns="http://www.w3.org/2000/svg">
<g clip-path="url(#clip0_131_2248)">
<path d="M12.0001 22C6.47712 22 2.00012 17.523 2.00012 12C2.00012 6.47699 6.47712 1.99999 12.0001 1.99999C17.5231 1.99999 22.0001 6.47699 22.0001 12C22.0001 17.523 17.5231 22 12.0001 22ZM12.0001 20C14.1219 20 16.1567 19.1571 17.657 17.6568C19.1573 16.1566 20.0001 14.1217 20.0001 12C20.0001 9.87826 19.1573 7.84342 17.657 6.34313C16.1567 4.84284 14.1219 3.99999 12.0001 3.99999C9.87839 3.99999 7.84356 4.84284 6.34327 6.34313C4.84298 7.84342 4.00012 9.87826 4.00012 12C4.00012 14.1217 4.84298 16.1566 6.34327 17.6568C7.84356 19.1571 9.87839 20 12.0001 20ZM9.00012 8.99999H11.0001V15H9.00012V8.99999ZM13.0001 8.99999H15.0001V15H13.0001V8.99999Z" fill="#EEEFF0"/>
</g>
<defs>
<clipPath id="clip0_131_2248">
<rect width="24" height="24" fill="white"/>
</clipPath>
</defs>
</svg>
