<svg width="24" height="24" viewBox="0 0 24 24" fill="none" xmlns="http://www.w3.org/2000/svg">
<path d="M4.02276 6.36401L3.5227 6.65268V7.23007V15.8653V16.4427L4.02276 16.7313L11.5001 21.0477L12 21.3363L12.4999 21.0477L19.9772 16.7313L20.4773 16.4427V15.8653V7.22755V6.64998L19.977 6.36136L12.4997 2.04754L11.9999 1.75915L11.5001 2.04766L4.02276 6.36401ZM3 6.35177L12 1.15475L21 6.35177V16.7412L12 21.9405L3 16.7412V6.35177ZM13.5227 11.5464C13.5227 12.3885 12.8409 13.0691 12 13.0691C11.1591 13.0691 10.4773 12.3885 10.4773 11.5464C10.4773 10.7062 11.1598 10.0237 12 10.0237C12.8402 10.0237 13.5227 10.7062 13.5227 11.5464Z" stroke="#EEEFF0" stroke-width="2"/>
</svg>
