<svg width="24" height="24" viewBox="0 0 24 24" fill="none" xmlns="http://www.w3.org/2000/svg">
<path d="M14.3442 18.0274L9.30555 15.2789C8.42962 16.215 7.18313 16.8 5.8 16.8C3.14903 16.8 1 14.6509 1 12C1 9.34903 3.14903 7.2 5.8 7.2C7.18306 7.2 8.4295 7.78495 9.30542 8.72095L14.3442 5.97256C14.25 5.59729 14.2 5.20448 14.2 4.8C14.2 2.14903 16.3491 0 19 0C21.6509 0 23.8 2.14903 23.8 4.8C23.8 7.45097 21.6509 9.6 19 9.6C17.6169 9.6 16.3704 9.01501 15.4944 8.07895L10.4557 10.8274C10.55 11.2026 10.6 11.5955 10.6 12C10.6 12.4045 10.55 12.7973 10.4558 13.1725L15.4946 15.921C16.3704 14.985 17.6169 14.4 19 14.4C21.6509 14.4 23.8 16.5491 23.8 19.2C23.8 21.8509 21.6509 24 19 24C16.3491 24 14.2 21.8509 14.2 19.2C14.2 18.7955 14.25 18.4026 14.3442 18.0274ZM5.8 14.4C7.12548 14.4 8.2 13.3255 8.2 12C8.2 10.6745 7.12548 9.6 5.8 9.6C4.47452 9.6 3.4 10.6745 3.4 12C3.4 13.3255 4.47452 14.4 5.8 14.4ZM19 7.2C20.3255 7.2 21.4 6.12548 21.4 4.8C21.4 3.47452 20.3255 2.4 19 2.4C17.6745 2.4 16.6 3.47452 16.6 4.8C16.6 6.12548 17.6745 7.2 19 7.2ZM19 21.6C20.3255 21.6 21.4 20.5255 21.4 19.2C21.4 17.8745 20.3255 16.8 19 16.8C17.6745 16.8 16.6 17.8745 16.6 19.2C16.6 20.5255 17.6745 21.6 19 21.6Z" fill="#EEEFF0"/>
</svg>
