<svg width="24" height="24" viewBox="0 0 24 24" fill="none" xmlns="http://www.w3.org/2000/svg">
<g clip-path="url(#clip0_154_5133)">
<g clip-path="url(#clip1_154_5133)">
<path d="M5 21.6875C5 19.6984 5.79018 17.7907 7.1967 16.3842C8.60322 14.9777 10.5109 14.1875 12.5 14.1875C14.4891 14.1875 16.3968 14.9777 17.8033 16.3842C19.2098 17.7907 20 19.6984 20 21.6875H18.125C18.125 20.1957 17.5324 18.7649 16.4775 17.71C15.4226 16.6551 13.9918 16.0625 12.5 16.0625C11.0082 16.0625 9.57742 16.6551 8.52252 17.71C7.46763 18.7649 6.875 20.1957 6.875 21.6875H5ZM12.5 13.25C9.39219 13.25 6.875 10.7328 6.875 7.625C6.875 4.51719 9.39219 2 12.5 2C15.6078 2 18.125 4.51719 18.125 7.625C18.125 10.7328 15.6078 13.25 12.5 13.25ZM12.5 11.375C14.5719 11.375 16.25 9.69688 16.25 7.625C16.25 5.55312 14.5719 3.875 12.5 3.875C10.4281 3.875 8.75 5.55312 8.75 7.625C8.75 9.69688 10.4281 11.375 12.5 11.375Z" fill="#EEEFF0"/>
</g>
</g>
<defs>
<clipPath id="clip0_154_5133">
<rect width="24" height="24" fill="white"/>
</clipPath>
<clipPath id="clip1_154_5133">
<rect width="24" height="24" fill="white"/>
</clipPath>
</defs>
</svg>
